<svg xmlns="http://www.w3.org/2000/svg" width="30" height="30" viewBox="0 0 30 30">
    <g fill="none" fill-rule="nonzero">
        <path fill="#f79f24" d="M23.526 21.36l-2.683 1.73a2.134 2.134 0 0 1-.02.768l2.672 1.723a1.768 1.768 0 1 1-.842 1.242l-2.642-1.704a2.118 2.118 0 1 1 .09-3.335l2.558-1.65a1.768 1.768 0 1 1 .867 1.226z"/>
        <path fill="#4D4D4D" fill-rule="evenodd" clip-rule="evenodd" d="M18 9C18 4.02943 13.9706 0 9 0C4.02943 0 0 4.02943 0 9C0 13.4922 3.29117 17.2155 7.59375 17.8907V11.6016H5.30859V9H7.59375V7.01719C7.59375 4.76156 8.93739 3.51562 10.9932 3.51562C11.9779 3.51562 13.0078 3.69141 13.0078 3.69141V5.90625H11.8729C10.7549 5.90625 10.4062 6.60001 10.4062 7.31174V9H12.9023L12.5033 11.6016H10.4062V17.8907C14.7088 17.2155 18 13.4922 18 9Z"/>
    </g>
</svg>
