<svg xmlns="http://www.w3.org/2000/svg" width="30" height="30" viewBox="0 0 30 30">
    <g fill="none" fill-rule="evenodd">
        <path fill="#4D4D4D" fill-rule="nonzero" d="M23.25 16a.75.75 0 1 1 1.5 0v5a.75.75 0 1 1-1.5 0v-5zM4.253 21.063A.76.76 0 0 1 4.25 21v-5a.75.75 0 1 1 1.5 0v5h12.5v-5a.75.75 0 1 1 1.5 0v5h5.536c.946 0 1.714.768 1.714 1.714v1.572c0 .946-.768 1.714-1.714 1.714H4.714A1.714 1.714 0 0 1 3 24.286v-1.572c0-.787.53-1.45 1.253-1.651zm.461 1.437a.214.214 0 0 0-.214.214v1.572c0 .118.096.214.214.214h20.572a.214.214 0 0 0 .214-.214v-1.572a.214.214 0 0 0-.214-.214H4.714zM6.72 5.25L4.65 8.872a.75.75 0 0 1-1.302-.744l2.18-3.818c.223-.358.617-.56 1.04-.56h16.863c.422 0 .816.202 1.054.585l2.165 3.793a.75.75 0 1 1-1.302.744L23.282 5.25H6.719zm3.514 10.611a.75.75 0 1 1 .881 1.214l-2.427 1.763a.75.75 0 0 1-.881-1.214l2.427-1.763zm4.213 0a.75.75 0 1 1 .882 1.214l-3.64 2.645a.75.75 0 0 1-.882-1.214l3.64-2.645z"/>
        <path fill="#f79f24" d="M27 10.714c0 1.894-1.482 3.429-3.31 3.429-1.247 0-2.332-.714-2.897-1.768-.565 1.054-1.65 1.768-2.896 1.768-1.247 0-2.332-.714-2.897-1.768-.565 1.054-1.65 1.768-2.897 1.768-1.246 0-2.331-.714-2.896-1.768-.565 1.054-1.65 1.768-2.897 1.768-1.828 0-3.31-1.535-3.31-3.429 0-.374.303-.677.677-.677h22.646c.374 0 .677.303.677.677z"/>
    </g>
</svg>
